<svg version="1.1" id="Layer_1" xmlns="http://www.w3.org/2000/svg" xmlns:xlink="http://www.w3.org/1999/xlink" x="0px" y="0px"
	 width="100%" viewBox="0 0 500 500" enable-background="new 0 0 500 500" xml:space="preserve">
<path fill="#000000" opacity="1.000000" stroke="none" 
	d="
M347.000000,501.000000 
	C232.666687,501.000000 118.833366,500.980225 5.000178,501.095276 
	C1.576402,501.098755 0.903033,500.423889 0.905298,497.000031 
	C1.013775,333.000122 1.013758,169.000153 0.905339,5.000263 
	C0.903076,1.576999 1.575744,0.903019 4.999860,0.905284 
	C168.999741,1.013775 332.999725,1.013760 496.999634,0.905356 
	C500.422638,0.903093 501.096985,1.575404 501.094727,4.999741 
	C500.986206,168.999634 500.986237,332.999603 501.094604,496.999512 
	C501.096893,500.422272 500.426361,501.107391 497.000153,501.097626 
	C447.167084,500.955322 397.333466,501.000000 347.000000,501.000000 
z"/>
<path fill="#080405" opacity="1.000000" stroke="none" 
	d="
M353.227509,208.520874 
	C352.744537,213.095398 352.257660,217.144226 350.533051,221.059631 
	C348.659058,225.314194 349.127899,228.945221 352.986847,232.602386 
	C364.229492,243.257248 374.935059,254.476501 386.024475,265.296906 
	C389.097565,268.295532 389.262054,270.422272 386.120239,273.508942 
	C372.710754,286.682892 359.684479,300.252014 346.114777,313.255829 
	C338.394379,320.654266 329.632660,326.955353 319.982605,331.649384 
	C316.106354,333.534882 316.037811,335.287170 317.766174,338.508606 
	C320.770050,344.107452 323.062134,349.991913 324.034363,356.736053 
	C324.973633,358.719086 324.249969,360.459808 324.719910,362.417511 
	C324.910980,362.956512 324.934906,363.174316 324.986633,363.719604 
	C325.940002,365.771698 325.322266,367.632172 325.443237,369.881287 
	C321.748810,372.779999 317.692627,370.949554 313.445740,371.223511 
	C312.858582,371.007690 312.682495,371.004944 312.242371,370.997070 
	C311.522400,370.463776 310.859802,370.524078 310.120697,370.112793 
	C309.862793,368.550262 310.202423,366.949036 308.487610,366.524506 
	C307.197845,366.205200 306.177856,367.123199 305.684357,368.185333 
	C304.506439,370.720551 302.571533,370.154694 300.595520,369.669373 
	C286.541901,366.217987 273.956451,360.010040 263.279694,350.082458 
	C259.881897,346.923096 256.197266,344.130676 253.503647,340.214264 
	C251.809830,337.751526 249.966751,338.142181 247.977386,340.653473 
	C236.251373,355.455780 221.424713,365.460510 202.732895,369.399872 
	C200.316666,369.909088 198.662018,370.323395 196.848999,367.778473 
	C194.979080,365.153748 192.853531,365.845306 192.048767,369.519409 
	C191.745529,370.600952 191.056396,370.457184 190.264618,370.788116 
	C189.848053,370.995239 189.663986,371.002106 189.203735,371.015747 
	C185.276810,372.029114 181.559967,371.296967 177.452347,371.253143 
	C177.056137,369.860291 177.084091,368.657196 177.151932,367.004395 
	C177.869370,364.308594 177.280869,361.994629 177.765350,359.406189 
	C178.124725,356.978790 177.682556,354.631683 180.385727,353.625977 
	C182.346588,352.896454 181.257034,351.654175 181.020203,350.368530 
	C180.383423,346.911804 180.971573,343.747803 184.826965,342.544708 
	C186.352249,342.068756 186.370300,341.710785 185.506485,340.673004 
	C185.296478,340.420715 184.925476,340.027618 184.998169,339.854187 
	C189.018768,330.260193 179.854401,330.691284 175.556976,328.046631 
	C166.586685,322.526367 158.548218,315.960754 151.108215,308.613190 
	C139.637222,297.284698 128.349579,285.770294 116.848320,274.473022 
	C113.683769,271.364594 113.494576,268.953583 116.706635,265.701996 
	C127.790413,254.481857 138.589355,242.979874 149.702484,231.789520 
	C152.425491,229.047562 152.652542,226.636673 151.957306,222.944046 
	C150.770218,216.639084 148.743530,210.406830 148.997528,203.419922 
	C148.203674,201.764206 148.513428,200.399841 148.513840,199.100174 
	C148.519669,180.373962 148.447769,161.647690 148.683380,142.450348 
	C154.740555,140.935104 160.702576,141.601242 166.638885,141.538086 
	C176.419037,141.434036 186.202042,141.426910 196.431488,141.759766 
	C196.879471,141.963638 197.378418,141.949951 197.627777,141.959778 
	C200.008896,143.023697 202.263535,142.313385 204.761078,142.204987 
	C209.572784,142.046249 212.662689,138.903275 216.115021,136.806641 
	C226.354919,130.587906 237.131851,125.429276 247.816864,120.077042 
	C249.713760,119.126862 251.602173,118.772392 253.536713,119.780731 
	C265.434998,125.982460 277.336090,132.179260 289.192322,138.460648 
	C290.784515,139.304199 292.129211,140.614868 293.886230,141.888702 
	C297.229584,142.970810 300.336731,142.336746 303.731445,142.212219 
	C304.048370,141.987152 304.483337,141.990738 304.700256,142.006348 
	C309.166321,140.935089 313.491699,141.561386 317.776001,141.537048 
	C329.251312,141.471817 340.727966,141.412735 352.636780,141.803589 
	C353.069855,142.040771 353.047302,142.047256 353.042114,142.057800 
	C353.976196,144.315277 353.465210,146.670959 353.471771,148.967285 
	C353.522858,166.770599 353.499939,184.574112 353.499939,202.857971 
	C353.480988,204.924515 353.548309,206.511765 353.227509,208.520874 
z"/>
<path fill="#272725" opacity="1.000000" stroke="none" 
	d="
M353.564758,203.804138 
	C353.121796,183.859802 353.043945,163.426529 353.001526,142.530792 
	C354.411591,143.209579 353.992889,144.802063 353.993042,146.230240 
	C353.995056,165.258560 353.957581,184.286880 353.564758,203.804138 
z"/>
<path fill="#2B2A2B" opacity="1.000000" stroke="none" 
	d="
M148.905334,141.959991 
	C149.051697,162.241791 149.035294,182.142548 149.007233,202.509674 
	C147.399017,201.294739 148.034439,199.193848 148.027176,197.269943 
	C147.958786,179.151337 147.955200,161.032486 147.974152,142.445038 
	C148.257767,141.843903 148.500168,141.711426 148.905334,141.959991 
z"/>
<path fill="#AAAAAA" opacity="1.000000" stroke="none" 
	d="
M149.517426,142.215271 
	C148.883102,142.307846 148.698074,142.274673 148.264221,142.108932 
	C148.217209,141.210175 148.779221,140.995270 149.493927,140.999649 
	C165.124435,141.095428 180.754929,141.189819 196.632446,141.624084 
	C181.241882,142.005600 165.604309,142.047562 149.517426,142.215271 
z"/>
<path fill="#AAAAAA" opacity="1.000000" stroke="none" 
	d="
M352.865234,141.648300 
	C337.334656,142.049835 321.599457,142.058914 305.390717,142.044983 
	C305.115051,141.278061 305.641083,140.978271 306.366272,140.982468 
	C321.797729,141.071777 337.229187,141.164108 352.865234,141.648300 
z"/>
<path fill="#929292" opacity="1.000000" stroke="none" 
	d="
M313.203186,371.409851 
	C316.906952,370.908234 320.779236,370.806061 324.891418,370.339966 
	C325.254730,369.769012 325.378204,369.561981 325.686249,369.665894 
	C326.260223,371.984314 324.925415,372.010956 323.554993,371.987793 
	C320.160553,371.930359 316.766174,371.869049 313.203186,371.409851 
z"/>
<path fill="#929292" opacity="1.000000" stroke="none" 
	d="
M177.228851,371.438171 
	C180.691071,371.037354 184.353989,371.011292 188.472198,371.003906 
	C185.215210,373.036957 181.269699,371.658691 177.228851,371.438171 
z"/>
<path fill="#535353" opacity="1.000000" stroke="none" 
	d="
M303.594849,142.016327 
	C301.048981,143.715103 297.896545,143.107178 294.467194,142.332214 
	C297.169708,142.060623 300.155487,142.053055 303.594849,142.016327 
z"/>
<path fill="#929292" opacity="1.000000" stroke="none" 
	d="
M177.610886,359.247009 
	C177.846207,361.374939 177.719284,363.664520 177.392090,366.254395 
	C177.210754,364.172699 177.229706,361.790649 177.610886,359.247009 
z"/>
<path fill="#535353" opacity="1.000000" stroke="none" 
	d="
M204.615906,141.940918 
	C203.005005,143.971741 200.699677,142.785324 198.171005,142.234192 
	C199.974899,141.946381 202.072647,141.923172 204.615906,141.940918 
z"/>
<path fill="#2B2A2B" opacity="1.000000" stroke="none" 
	d="
M190.411621,370.995911 
	C190.508423,370.673309 190.984711,370.358246 191.740326,369.955383 
	C192.936127,369.957031 193.852585,370.046509 195.269730,370.184875 
	C193.539627,371.512360 192.103958,370.811066 190.411621,370.995911 
z"/>
<path fill="#929292" opacity="1.000000" stroke="none" 
	d="
M324.867737,362.360046 
	C323.508636,361.305328 324.368530,359.502716 324.068542,357.516998 
	C325.793793,358.513641 324.516449,360.380341 324.867737,362.360046 
z"/>
<path fill="#AAAAAA" opacity="1.000000" stroke="none" 
	d="
M325.934601,369.571899 
	C325.870789,369.976837 325.501007,369.996002 325.316132,369.986023 
	C325.068176,368.281525 325.005096,366.587036 324.978241,364.469788 
	C327.093445,365.417206 325.601593,367.473541 325.934601,369.571899 
z"/>
<path fill="#AAAAAA" opacity="1.000000" stroke="none" 
	d="
M353.165466,204.678238 
	C353.199646,204.293060 353.503387,204.309814 353.654846,204.295258 
	C353.786255,205.772797 353.766235,207.264908 353.381592,208.851013 
	C353.055054,207.651169 353.093170,206.357285 353.165466,204.678238 
z"/>
<path fill="#2B2A2B" opacity="1.000000" stroke="none" 
	d="
M309.712097,369.878632 
	C310.519501,370.066956 311.062988,370.298584 311.792389,370.761108 
	C311.040314,370.988983 310.100464,371.019775 309.165283,370.967163 
	C308.769318,370.944885 308.174866,370.844391 308.584198,370.211578 
	C308.713196,370.012177 309.151459,370.012848 309.712097,369.878632 
z"/>
<path fill="#5A1E35" opacity="1.000000" stroke="none" 
	d="
M195.823212,197.165802 
	C210.501068,211.202438 224.944000,224.972229 239.347244,238.783417 
	C244.631104,243.850082 244.583069,243.890579 240.088745,249.486420 
	C232.851257,258.497742 227.907440,268.546906 226.818481,280.173248 
	C225.835190,290.671478 227.636032,300.700226 232.781723,310.013733 
	C233.424789,311.177612 234.177185,312.281677 234.808044,313.451660 
	C235.430176,314.605408 236.411560,315.878571 235.444580,317.143616 
	C234.351562,318.573547 232.682678,318.153809 231.299637,317.599548 
	C220.248795,313.170837 209.931747,307.726166 202.048431,298.344757 
	C191.415695,285.691437 186.291092,271.011322 185.996109,254.752243 
	C185.655060,235.952255 186.003082,217.139755 186.057861,198.332703 
	C186.060272,197.501343 186.035614,196.655502 186.173920,195.841980 
	C186.442627,194.261246 186.135147,192.210205 188.094238,191.607742 
	C189.685974,191.118256 190.840546,192.525101 191.956665,193.475906 
	C193.221069,194.553024 194.372177,195.763107 195.823212,197.165802 
z"/>
<path fill="#681F3B" opacity="1.000000" stroke="none" 
	d="
M295.757141,246.182129 
	C296.152222,245.674835 296.371643,245.450134 296.832092,245.139923 
	C298.731110,244.000854 300.375336,242.920593 301.723022,241.005585 
	C301.987091,240.462936 302.155396,240.255127 302.542053,239.979019 
	C303.475861,239.558731 303.997498,238.943390 304.759277,238.159439 
	C304.948975,237.927719 305.000580,237.993347 304.968750,237.966705 
	C307.719574,236.747147 309.226044,234.447159 310.437622,231.811920 
	C311.070251,230.435883 312.060211,229.126083 313.833649,229.404068 
	C315.988403,229.741806 315.483582,231.580200 315.482361,232.980164 
	C315.471466,245.524719 316.928986,258.223358 313.770447,270.511230 
	C311.984833,277.457794 309.492981,284.375824 305.374084,290.962402 
	C304.960297,291.803772 304.759186,292.267395 304.371948,292.905762 
	C302.861603,293.916534 301.977997,295.107941 301.214905,296.810059 
	C300.903870,297.353912 300.724487,297.593140 300.311462,297.924103 
	C298.364838,299.669800 296.038879,300.791595 295.201416,303.662811 
	C283.707764,313.719971 270.548615,319.104706 255.746613,320.646057 
	C254.393295,320.786987 253.106598,320.697052 251.863358,320.079865 
	C246.271347,317.303894 240.434464,305.668976 241.297867,299.395020 
	C243.311539,284.762787 251.757126,274.505981 263.641602,266.738007 
	C272.396301,261.015747 281.414001,255.695816 290.632996,250.086441 
	C292.706573,249.083740 294.272522,247.946671 295.757141,246.182129 
z"/>
<path fill="#501832" opacity="1.000000" stroke="none" 
	d="
M199.171509,308.806519 
	C206.247116,314.948700 213.222290,320.564636 221.971451,323.477203 
	C223.709610,324.055847 226.674774,324.266266 226.146103,326.804382 
	C225.704391,328.925018 222.844666,328.758484 220.970261,328.818665 
	C206.598892,329.279907 192.851730,326.919373 180.208939,319.584473 
	C174.130234,316.057800 168.457443,312.054596 163.482147,307.065216 
	C152.200592,295.751801 140.948227,284.407440 129.524429,273.238892 
	C126.510841,270.292603 126.794250,268.129456 129.583969,265.340332 
	C137.801254,257.124847 145.920486,248.809479 153.974991,240.434052 
	C156.711060,237.588959 158.602081,237.388428 160.907471,241.033966 
	C164.381195,246.527054 168.439377,251.633011 173.944214,255.305054 
	C176.259216,256.849274 176.980179,258.898590 177.236618,261.581451 
	C178.678146,276.662354 183.601059,290.420593 193.237793,302.307129 
	C195.014664,304.498840 196.528793,306.922424 199.171509,308.806519 
z"/>
<path fill="#4F1831" opacity="1.000000" stroke="none" 
	d="
M332.764404,250.766418 
	C336.413147,247.497635 339.065125,243.866882 341.420624,240.028091 
	C343.217743,237.099319 344.810516,237.119690 347.161896,239.590469 
	C355.528412,248.382004 363.979126,257.096954 372.559265,265.679626 
	C375.241821,268.363037 375.566498,270.366669 372.671692,273.124176 
	C359.044525,286.105133 346.684387,300.434479 332.149445,312.428314 
	C315.034821,326.550873 295.293457,331.546600 272.839752,327.602203 
	C273.946350,325.171967 275.937805,325.160126 277.469269,324.582977 
	C300.205383,316.014923 315.067352,300.145905 322.068298,276.851257 
	C323.562592,271.879303 324.814880,266.889954 324.971344,261.701813 
	C325.130981,256.407349 329.722656,254.378281 332.764404,250.766418 
z"/>
<path fill="#591D33" opacity="1.000000" stroke="none" 
	d="
M344.898987,192.954468 
	C345.267822,210.582031 341.541718,226.467728 330.611389,240.141922 
	C329.421417,241.630630 328.554169,244.255066 326.236023,243.442154 
	C324.230103,242.738739 325.029388,240.229919 325.023804,238.490509 
	C324.961151,219.024933 324.980499,199.559128 324.916016,180.093567 
	C324.908112,177.704651 325.722198,174.804901 322.806458,173.451035 
	C319.639648,171.980606 317.453339,173.978088 315.427185,176.094650 
	C314.967377,176.575027 314.499146,177.053864 313.988800,177.478073 
	C312.864624,178.412491 311.878296,180.093475 310.265198,179.574417 
	C308.225586,178.918106 308.909729,176.816284 308.759979,175.241196 
	C308.115906,168.466690 307.924835,161.589783 304.514313,155.419693 
	C302.424591,151.639084 304.229797,150.779419 307.706360,150.806351 
	C318.187469,150.887527 328.671844,151.031311 339.149567,150.846390 
	C343.755951,150.765106 344.873108,153.158661 344.870148,157.023773 
	C344.861176,168.836609 344.887024,180.649460 344.898987,192.954468 
z"/>
<path fill="#501831" opacity="1.000000" stroke="none" 
	d="
M157.807480,165.009094 
	C157.782791,150.924896 157.782791,150.931076 171.142334,150.923386 
	C178.797485,150.918976 186.452896,150.844238 194.107681,150.889572 
	C199.079315,150.919006 199.693970,151.769791 197.473999,156.058258 
	C194.074768,162.624756 193.725937,169.753708 193.136612,176.869370 
	C193.056549,177.836166 193.102066,179.204544 192.521011,179.656967 
	C191.323776,180.589233 190.465302,179.162949 189.603500,178.510803 
	C188.280991,177.509979 186.991455,176.443878 185.813995,175.278152 
	C184.034012,173.515900 182.075256,172.390518 179.556717,173.379379 
	C177.034744,174.369583 177.078522,176.706238 177.073196,178.870972 
	C177.054779,186.359634 177.125687,193.848495 177.118561,201.337250 
	C177.106674,213.818527 177.068878,226.299789 177.019348,238.780975 
	C177.012878,240.408661 176.872269,242.035828 176.777390,244.003403 
	C174.026947,243.535706 172.771149,241.619904 171.545532,240.050644 
	C162.128922,227.993744 157.065170,214.505936 157.642853,198.952530 
	C158.056412,187.817276 157.777557,176.656326 157.807480,165.009094 
z"/>
<path fill="#621F37" opacity="1.000000" stroke="none" 
	d="
M230.674347,215.228851 
	C224.089951,204.121460 224.607941,189.055679 231.506653,180.759018 
	C238.975342,171.776917 251.527786,169.134186 262.239532,174.288635 
	C273.000031,179.466553 278.005768,189.575500 275.668243,201.491867 
	C275.030090,204.745193 273.922546,207.898071 274.043213,211.299805 
	C274.146210,214.203995 272.017090,215.343307 269.642517,215.924088 
	C265.534698,216.928772 262.703735,218.820755 262.656006,223.614105 
	C262.633148,225.911331 260.992645,227.117355 258.620422,227.127213 
	C255.293381,227.141037 251.958984,227.043381 248.641144,227.230789 
	C243.855148,227.501129 239.889526,227.440094 239.199356,220.926849 
	C238.765289,216.830338 234.264145,216.550247 230.674347,215.228851 
z"/>
<path fill="#642039" opacity="1.000000" stroke="none" 
	d="
M247.738892,254.918823 
	C248.100525,254.192703 248.346680,253.754395 248.791473,253.155762 
	C250.474365,252.100342 252.084656,251.333923 252.781952,249.180008 
	C259.598846,241.204971 267.282135,234.567139 274.617065,227.570328 
	C286.893311,215.859955 299.065521,204.040543 311.308197,192.294800 
	C312.348236,191.296997 313.468323,189.442200 314.919495,190.141113 
	C316.744598,191.020111 315.579681,193.083740 315.428009,194.619919 
	C313.092896,218.266357 298.907959,233.808441 280.038727,246.064758 
	C274.743744,249.504059 269.242340,252.625656 263.507751,255.988586 
	C262.261414,256.572296 261.245728,256.883026 260.236328,257.818726 
	C260.028259,258.052795 259.997772,258.004669 260.021973,258.019531 
	C259.217377,258.664703 258.143402,258.898499 257.240051,259.936951 
	C251.070709,264.921204 245.726624,270.318817 240.484436,276.306702 
	C238.873871,276.429779 238.346191,275.318115 237.373962,274.233337 
	C237.414764,273.185394 237.680344,272.394867 238.059174,271.312195 
	C240.925934,267.451233 242.566833,263.266205 244.741348,258.981995 
	C245.046448,258.182190 245.258911,257.725769 245.671143,257.109772 
	C246.552139,256.466522 247.099380,255.848251 247.738892,254.918823 
z"/>
<path fill="#642038" opacity="1.000000" stroke="none" 
	d="
M286.587952,147.360748 
	C288.917206,148.981674 292.015198,150.801315 291.083893,153.019775 
	C290.025482,155.541168 286.648346,153.942886 284.333710,153.532852 
	C274.031708,151.707855 264.462067,153.929413 255.512192,158.902985 
	C252.565903,160.540283 250.354065,160.823181 247.289795,159.098663 
	C237.562164,153.624161 227.141464,151.540833 216.022095,153.818558 
	C214.475784,154.135315 212.342621,154.800735 211.507156,152.994125 
	C210.552704,150.930191 212.573730,149.564072 213.956589,148.595474 
	C219.957993,144.391907 226.448822,141.009033 232.992416,137.727844 
	C237.595886,135.419495 242.219330,133.134125 246.694778,130.593506 
	C249.580078,128.955582 252.146393,128.675262 255.095490,130.429596 
	C265.241241,136.465042 276.319702,140.775375 286.587952,147.360748 
z"/>
<path fill="#4D172F" opacity="1.000000" stroke="none" 
	d="
M310.740540,345.343323 
	C312.617523,348.925537 314.172607,352.216339 314.731995,355.905853 
	C315.532928,361.188324 314.565948,362.561371 309.378998,361.808685 
	C295.458282,359.788666 282.809631,354.624084 271.963867,345.504700 
	C269.554382,343.478790 267.435211,341.100708 265.245331,338.824219 
	C264.459808,338.007599 263.378662,337.006989 264.055237,335.800171 
	C264.780945,334.505646 266.127289,335.270020 267.211975,335.479736 
	C275.212799,337.026611 283.209503,338.636566 291.432281,337.923492 
	C293.574951,337.737701 295.866516,337.780640 297.804108,337.005005 
	C303.054962,334.903046 306.427734,336.688385 308.735840,341.465515 
	C309.314148,342.662445 309.961517,343.826019 310.740540,345.343323 
z"/>
<path fill="#4D172E" opacity="1.000000" stroke="none" 
	d="
M188.555161,361.681030 
	C186.343231,359.858795 187.185364,357.844360 187.489059,355.923004 
	C188.121399,351.922516 189.781616,348.291595 191.587463,344.711548 
	C196.004379,335.955170 196.412582,335.802948 206.121185,337.442505 
	C215.821732,339.080627 225.353806,337.472809 234.865372,335.691772 
	C235.902969,335.497467 237.213516,334.503387 237.972610,335.933777 
	C238.495773,336.919556 237.599960,337.840363 236.953247,338.565674 
	C224.153671,352.921082 208.057983,360.493469 188.555161,361.681030 
z"/>
<path fill="#551C30" opacity="1.000000" stroke="none" 
	d="
M202.967865,179.793915 
	C202.751984,165.630768 203.502045,164.731781 217.006790,162.255661 
	C222.970886,161.162140 228.905518,160.855057 234.738754,162.899078 
	C235.779572,163.263779 237.188171,163.558029 237.200424,165.010529 
	C237.210266,166.175537 235.998260,166.479034 235.149368,166.930954 
	C220.822128,174.558456 215.781494,186.731094 217.751266,202.361847 
	C217.809280,202.822220 217.614975,203.314407 217.455475,204.307510 
	C208.804138,198.291092 202.750702,191.209579 202.967865,179.793915 
z"/>
<path fill="#4E192F" opacity="1.000000" stroke="none" 
	d="
M270.928772,169.067245 
	C269.017883,167.089676 264.762756,166.922119 265.386200,164.505325 
	C265.991760,162.157898 269.831665,162.318176 272.442780,161.891632 
	C280.449432,160.583710 287.918243,162.540619 295.253815,165.493591 
	C297.875275,166.548889 299.211151,168.255585 299.114288,171.178604 
	C298.971161,175.498718 299.170837,179.833481 298.939484,184.146729 
	C298.432983,193.589264 291.169464,198.487747 284.927612,204.535858 
	C286.653717,190.103012 283.426208,177.893066 270.928772,169.067245 
z"/>
<path fill="#562233" opacity="1.000000" stroke="none" 
	d="
M305.453491,291.153656 
	C307.524445,285.053925 310.191406,278.860474 312.147583,272.450104 
	C313.538696,267.891663 314.468323,263.067535 314.723022,258.314789 
	C315.167023,250.028763 314.941681,241.706360 314.968231,233.399109 
	C314.971375,232.419907 314.985107,231.169540 313.806610,230.919220 
	C312.426483,230.626068 311.748413,231.812347 311.279694,232.877975 
	C310.160950,235.421570 308.753754,237.582550 305.304932,237.927582 
	C308.403046,233.402237 310.731873,228.009674 314.993652,223.967178 
	C315.455902,224.457336 315.856140,224.684235 315.854492,224.908112 
	C315.744720,239.648193 317.942474,254.451202 314.932617,269.111023 
	C313.318909,276.970978 310.495178,284.391388 305.453491,291.153656 
z"/>
<path fill="#592134" opacity="1.000000" stroke="none" 
	d="
M244.567017,258.868530 
	C245.264572,263.909424 241.641190,267.201813 238.511200,270.960205 
	C239.425003,266.640198 241.380493,262.621613 244.567017,258.868530 
z"/>
<path fill="#592134" opacity="1.000000" stroke="none" 
	d="
M237.031998,274.355530 
	C238.398712,274.101227 239.436569,274.549500 240.073425,276.155945 
	C239.574951,277.827454 238.946548,279.150696 238.105606,280.715149 
	C237.523575,281.328003 237.079300,281.477844 236.245544,281.204102 
	C236.258881,278.913239 236.586853,276.824158 237.031998,274.355530 
z"/>
<path fill="#562233" opacity="1.000000" stroke="none" 
	d="
M295.273560,303.763306 
	C294.602112,300.588654 296.011078,298.630127 299.749634,298.107361 
	C299.320435,300.492340 297.422577,302.036530 295.273560,303.763306 
z"/>
<path fill="#562233" opacity="1.000000" stroke="none" 
	d="
M295.656586,246.031235 
	C295.526520,248.332230 294.110626,249.685394 291.313110,249.960175 
	C292.026031,248.249664 293.527557,247.009476 295.656586,246.031235 
z"/>
<path fill="#4D172E" opacity="1.000000" stroke="none" 
	d="
M235.759583,281.260742 
	C236.367447,280.993378 236.803986,280.984436 237.566788,280.965912 
	C237.678177,282.420837 237.285690,283.795135 235.717804,284.936188 
	C234.671555,283.792877 235.145065,282.654144 235.759583,281.260742 
z"/>
<path fill="#562233" opacity="1.000000" stroke="none" 
	d="
M301.562805,240.843872 
	C301.645538,243.241302 300.213348,244.598785 297.390808,244.985199 
	C298.039062,243.247818 299.556793,242.016312 301.562805,240.843872 
z"/>
<path fill="#592134" opacity="1.000000" stroke="none" 
	d="
M252.677658,249.062744 
	C252.965790,251.122894 252.156128,252.683548 249.353760,252.964752 
	C249.740265,251.389175 251.045319,250.283752 252.677658,249.062744 
z"/>
<path fill="#562233" opacity="1.000000" stroke="none" 
	d="
M301.317139,296.914246 
	C301.060394,295.290161 301.473694,293.746338 303.831696,293.143005 
	C303.751404,294.605255 302.797852,295.763977 301.317139,296.914246 
z"/>
<path fill="#592134" opacity="1.000000" stroke="none" 
	d="
M260.334778,257.977112 
	C260.383820,256.819458 261.209015,256.177521 262.832092,256.093323 
	C262.333649,256.689911 261.487457,257.295654 260.334778,257.977112 
z"/>
<path fill="#592134" opacity="1.000000" stroke="none" 
	d="
M257.379395,260.107361 
	C257.334381,258.951996 258.085541,258.234497 259.705505,258.060852 
	C259.257538,258.693024 258.468933,259.351685 257.379395,260.107361 
z"/>
<path fill="#562233" opacity="1.000000" stroke="none" 
	d="
M304.657593,238.024780 
	C304.716064,238.797867 304.267639,239.479019 303.032410,239.811279 
	C303.264557,239.289230 303.815369,238.705536 304.657593,238.024780 
z"/>
<path fill="#592134" opacity="1.000000" stroke="none" 
	d="
M247.584778,254.795898 
	C247.746246,255.556000 247.420380,256.341370 246.184967,256.847565 
	C246.352341,256.287018 246.833771,255.623901 247.584778,254.795898 
z"/>
<path fill="#642038" opacity="1.000000" stroke="none" 
	d="
M209.503677,154.446854 
	C209.551712,154.420959 209.455643,154.472748 209.503677,154.446854 
z"/>
<path fill="#0C0405" opacity="1.000000" stroke="none" 
	d="
M233.826859,207.244629 
	C231.534637,204.017471 231.691345,200.919907 233.657898,198.197754 
	C235.808273,195.221130 239.029770,194.408920 242.494995,195.636551 
	C245.798660,196.806931 246.908295,199.460007 246.348068,202.763428 
	C245.718262,206.477356 243.349869,208.527176 239.656052,208.982864 
	C237.647507,209.230637 235.691299,209.017136 233.826859,207.244629 
z"/>
<path fill="#0C0405" opacity="1.000000" stroke="none" 
	d="
M258.147522,206.848145 
	C255.377426,203.494614 254.826416,200.108704 257.558502,197.132782 
	C259.747345,194.748566 262.861267,194.512482 265.833984,195.999832 
	C269.591064,197.879654 270.961761,202.726654 268.828857,206.230560 
	C266.782745,209.591904 262.972168,209.920792 258.147522,206.848145 
z"/>
<path fill="#130408" opacity="1.000000" stroke="none" 
	d="
M253.796997,217.815582 
	C253.127838,217.746552 252.753876,217.744293 252.497894,217.569366 
	C250.676987,216.325058 247.668701,219.544266 246.817825,216.687225 
	C246.016647,213.997055 248.032181,211.373962 249.462769,208.984406 
	C250.085785,207.943756 251.482864,206.960602 252.231537,208.281403 
	C253.866348,211.165573 256.940643,213.963318 253.796997,217.815582 
z"/>
</svg>