<?xml version="1.0" standalone="no"?>
<!DOCTYPE svg PUBLIC "-//W3C//DTD SVG 20010904//EN"
 "http://www.w3.org/TR/2001/REC-SVG-20010904/DTD/svg10.dtd">
<svg version="1.0" xmlns="http://www.w3.org/2000/svg"
 width="500.000000pt" height="500.000000pt" viewBox="0 0 500.000000 500.000000"
 preserveAspectRatio="xMidYMid meet">

<g transform="translate(0.000000,500.000000) scale(0.100000,-0.100000)"
fill="#000000" stroke="none">
<path d="M2316 3725 c-99 -53 -194 -106 -210 -119 l-31 -23 -298 5 -298 5 3
-354 c4 -307 7 -362 23 -414 10 -33 18 -70 19 -82 1 -15 -57 -79 -198 -223
l-200 -202 253 -251 c251 -252 331 -317 444 -367 27 -12 47 -25 45 -28 -66
-124 -95 -213 -100 -312 l-3 -55 45 -3 c60 -5 186 14 263 40 175 57 283 135
418 301 3 4 51 -36 105 -91 165 -164 319 -234 548 -249 l98 -6 -7 79 c-9 91
-42 199 -79 255 -14 21 -26 41 -26 43 0 3 24 16 54 29 49 23 163 94 193 121
22 20 388 384 443 440 l55 56 -205 205 -204 204 12 33 c36 100 42 177 42 505
l0 326 -292 -5 -293 -5 -40 27 c-36 24 -388 210 -397 210 -1 0 -84 -43 -182
-95z"/>
</g>
</svg>
